<svg width="32" height="32" viewBox="0 0 32 32" fill="none" xmlns="http://www.w3.org/2000/svg">
<path d="M3.60077 15.2029C3.60077 8.35315 9.15356 2.80035 16.0033 2.80035C22.853 2.80035 28.4058 8.35315 28.4058 15.2029V19.8438V21.0441C28.4058 21.6186 27.9401 22.0843 27.3656 22.0843H26.9655V19.8438V16.0484C26.9655 9.55143 22.5225 4.24064 16.0033 4.24064C9.48406 4.24064 5.04106 9.55143 5.04106 16.0484V19.7638V22.0843H4.64098C4.06648 22.0843 3.60077 21.6186 3.60077 21.0441V19.7638V15.2029Z" fill="#4878A6" stroke="#0E1821" stroke-width="0.480098"/>
<path d="M4.88012 19.2804C4.88012 18.3965 5.59661 17.6801 6.48045 17.6801H8.08008V25.8401H6.48045C5.59661 25.8401 4.88012 25.1236 4.88012 24.2397V19.2804Z" fill="#4878A6" stroke="#0E1821" stroke-width="0.480098"/>
<path d="M27.1203 19.2804C27.1203 18.3965 26.4038 17.6801 25.52 17.6801H23.9204V25.8401H25.52C26.4038 25.8401 27.1203 25.1236 27.1203 24.2397V19.2804Z" fill="#4878A6" stroke="#0E1821" stroke-width="0.480098"/>
<rect x="7.12018" y="16.0801" width="4.31997" height="11.3601" rx="2.15998" fill="#2A5275" stroke="#0E1821" stroke-width="0.480098"/>
<rect x="-0.240049" y="0.240049" width="4.31997" height="11.3601" rx="2.15998" transform="matrix(-1 0 0 1 24.6403 15.84)" fill="#2A5275" stroke="#0E1821" stroke-width="0.480098"/>
</svg>
