<svg width="32" height="32" viewBox="0 0 32 32" fill="none" xmlns="http://www.w3.org/2000/svg">
<rect x="2.32046" y="24.4048" width="27.6856" height="2.56052" rx="1.28026" fill="#2A5275" stroke="#0E1821" stroke-width="0.480098"/>
<path d="M4.56079 26.9651H9.84186V29.7657C9.84186 30.2518 9.44779 30.6459 8.96168 30.6459H5.44097C4.95486 30.6459 4.56079 30.2518 4.56079 29.7657V26.9651Z" fill="#0E1821" stroke="#0E1821" stroke-width="0.480098"/>
<path d="M22.4845 26.9651H27.7656V29.7657C27.7656 30.2518 27.3715 30.6459 26.8854 30.6459H23.3647C22.8786 30.6459 22.4845 30.2518 22.4845 29.7657V26.9651Z" fill="#0E1821" stroke="#0E1821" stroke-width="0.480098"/>
<path d="M2.96051 19.3638C2.96051 17.552 4.42931 16.0832 6.24117 16.0832H26.0852C27.8971 16.0832 29.3659 17.552 29.3659 19.3638V22.8845C29.3659 23.7242 28.6852 24.4048 27.8456 24.4048H4.48082C3.64118 24.4048 2.96051 23.7242 2.96051 22.8845V19.3638Z" fill="#4878A6" stroke="#0E1821" stroke-width="0.480098"/>
<path d="M22.2325 8.32144H10.0937C8.66425 8.32144 7.40812 9.26927 7.01588 10.6438L5.44092 16.163H26.8853L25.3103 10.6438C24.9181 9.26927 23.6619 8.32144 22.2325 8.32144Z" fill="#4878A6" stroke="#0E1821" stroke-width="0.480098" stroke-linecap="round" stroke-linejoin="round"/>
<path d="M22.8628 10.162H9.46319C9.11638 10.162 8.80905 10.3854 8.70206 10.7153L6.96112 16.0832H25.3649L23.6239 10.7153C23.5169 10.3854 23.2096 10.162 22.8628 10.162Z" fill="white" stroke="#0E1821" stroke-width="0.480098" stroke-linecap="round" stroke-linejoin="round"/>
<path d="M6.30057 13.2825H5.601C3.4798 13.2825 1.76022 11.5629 1.76022 9.4417V6.72115C1.76022 4.59995 3.4798 2.88037 5.601 2.88037H24.4848" stroke="#0E1821" stroke-width="0.480098"/>
<path d="M25.2051 2.16015L25.2051 3.60045L24.4849 3.60045C24.3523 3.60045 24.2449 3.49297 24.2449 3.3604L24.2449 2.4002C24.2449 2.26763 24.3523 2.16015 24.4849 2.16015L25.2051 2.16015Z" fill="#F15152" stroke="#0E1821" stroke-width="0.480098"/>
<path d="M27.4457 1.35998L27.4457 4.4006L25.4453 4.4006C25.3127 4.4006 25.2053 4.29313 25.2053 4.16055L25.2053 1.60003C25.2053 1.46746 25.3127 1.35998 25.4453 1.35998L27.4457 1.35998Z" fill="#F15152" stroke="#0E1821" stroke-width="0.480098"/>
<line x1="27.7655" y1="2.00025" x2="28.7257" y2="2.00025" stroke="#0E1821" stroke-width="0.480098" stroke-linecap="round"/>
<line x1="27.7655" y1="3.76044" x2="28.7257" y2="3.76044" stroke="#0E1821" stroke-width="0.480098" stroke-linecap="round"/>
<circle cx="7.12116" cy="20.7239" r="2.24046" fill="#FBB13C" stroke="#0E1821" stroke-width="0.480098"/>
<circle cx="25.2051" cy="20.7239" r="2.24046" fill="#FBB13C" stroke="#0E1821" stroke-width="0.480098"/>
<path d="M15.2903 17.7291C15.301 17.6928 15.3232 17.661 15.3537 17.6383C15.3842 17.6157 15.4212 17.6034 15.4592 17.6035H16.8674C16.8953 17.6035 16.9228 17.6101 16.9476 17.6227C16.9724 17.6354 16.9938 17.6537 17.0101 17.6762C17.0264 17.6987 17.0371 17.7247 17.0413 17.7521C17.0455 17.7795 17.0431 17.8075 17.0343 17.8338L16.4077 19.7038H17.7476C17.7805 19.7037 17.8128 19.7129 17.8408 19.7303C17.8688 19.7476 17.8913 19.7724 17.9058 19.8018C17.9203 19.8313 17.9262 19.8642 17.9228 19.8968C17.9194 19.9294 17.9069 19.9604 17.8866 19.9862L15.4223 23.1367C15.397 23.1691 15.3611 23.1917 15.3208 23.2005C15.2806 23.2093 15.2384 23.2038 15.2019 23.1848C15.1653 23.1659 15.1365 23.1348 15.1206 23.097C15.1047 23.0591 15.1027 23.0169 15.1149 22.9778L15.749 20.9289H14.5791C14.5517 20.9289 14.5248 20.9226 14.5003 20.9104C14.4758 20.8983 14.4545 20.8806 14.4381 20.8588C14.4217 20.837 14.4106 20.8118 14.4058 20.785C14.4009 20.7582 14.4024 20.7307 14.4101 20.7045L15.2903 17.7291ZM15.5909 17.9535L14.8143 20.5789H15.9873C16.0149 20.5789 16.042 20.5853 16.0666 20.5976C16.0912 20.61 16.1126 20.6279 16.1289 20.6499C16.1453 20.6719 16.1562 20.6975 16.1609 20.7245C16.1655 20.7515 16.1637 20.7792 16.1556 20.8054L15.7338 22.1681L17.3878 20.0538H16.1633C16.1355 20.0538 16.108 20.0472 16.0832 20.0345C16.0584 20.0219 16.0369 20.0036 16.0206 19.9811C16.0043 19.9586 15.9937 19.9326 15.9895 19.9052C15.9853 19.8778 15.9877 19.8498 15.9965 19.8235L16.6231 17.9535H15.5909Z" fill="white"/>
</svg>
