<svg width="32" height="32" viewBox="0 0 32 32" fill="none" xmlns="http://www.w3.org/2000/svg">
<g clip-path="url(#clip0_217_8828)">
<path d="M8.70575 22.7776C9.21741 23.0388 10.4799 23.2518 11.4366 22.0147" stroke="black" stroke-width="0.48"/>
<rect x="9.93737" y="20.2207" width="11.84" height="3.36" rx="1.04" transform="rotate(-30 9.93737 20.2207)" fill="#F15152" stroke="#0E1821" stroke-width="0.48"/>
<path d="M24.552 13.6939L23.9245 12.6071C23.7478 12.301 23.8527 11.9096 24.1588 11.7328L26.7915 10.2128C27.0976 10.0361 27.489 10.141 27.6658 10.4471L28.2932 11.5339C28.3781 11.6809 28.4011 11.8555 28.3571 12.0195L27.8008 14.0959C27.7093 14.4373 27.3584 14.6399 27.0169 14.5484L24.9406 13.9921C24.7766 13.9481 24.6368 13.8409 24.552 13.6939Z" fill="white" stroke="#0E1821" stroke-width="0.48"/>
<path d="M5.43364 24.74L4.80267 23.6471C4.62593 23.341 4.73081 22.9496 5.03692 22.7728L7.53108 21.3328C7.83718 21.1561 8.2286 21.261 8.40533 21.5671L9.03631 22.66C9.11909 22.8033 9.14308 22.9732 9.10326 23.1339L8.60387 25.149C8.51657 25.5012 8.15412 25.7105 7.80539 25.61L5.81062 25.0349C5.65154 24.9891 5.51642 24.8833 5.43364 24.74Z" fill="white" stroke="#0E1821" stroke-width="0.48"/>
<path d="M30.1327 7.36001L1.03427 24.16C0.72816 24.3367 0.62328 24.7282 0.800011 25.0343C0.976742 25.3404 1.36816 25.4453 1.67427 25.2685L2.46387 24.8126C3.14342 24.4203 3.87895 24.1341 4.64497 23.964L4.78916 23.932C5.65075 23.7407 6.47803 23.4188 7.24236 22.9775L26.0046 12.1451C26.769 11.7039 27.4614 11.1483 28.0578 10.4978L28.1577 10.389C28.688 9.81064 29.3036 9.31674 29.9831 8.9244L30.7727 8.46852C31.0788 8.29179 31.1837 7.90037 31.007 7.59427C30.8302 7.28816 30.4388 7.18328 30.1327 7.36001Z" fill="#4878A6" stroke="#0E1821" stroke-width="0.48"/>
<circle cx="28.3804" cy="16.0081" r="1.36157" transform="rotate(-30 28.3804 16.0081)" fill="white"/>
<mask id="path-7-inside-1_217_8828" fill="white">
<path d="M31.2441 14.3548C32.1572 15.9363 31.6153 17.9586 30.0338 18.8717C28.4522 19.7849 26.4299 19.243 25.5168 17.6614C24.6037 16.0799 25.1455 14.0575 26.7271 13.1444C28.3086 12.2313 30.331 12.7732 31.2441 14.3548ZM27.4486 16.5461C27.7457 17.0607 28.4038 17.237 28.9184 16.9399C29.433 16.6428 29.6093 15.9847 29.3122 15.4701C29.0151 14.9555 28.3571 14.7792 27.8425 15.0763C27.3278 15.3734 27.1515 16.0314 27.4486 16.5461Z"/>
</mask>
<path d="M31.2441 14.3548C32.1572 15.9363 31.6153 17.9586 30.0338 18.8717C28.4522 19.7849 26.4299 19.243 25.5168 17.6614C24.6037 16.0799 25.1455 14.0575 26.7271 13.1444C28.3086 12.2313 30.331 12.7732 31.2441 14.3548ZM27.4486 16.5461C27.7457 17.0607 28.4038 17.237 28.9184 16.9399C29.433 16.6428 29.6093 15.9847 29.3122 15.4701C29.0151 14.9555 28.3571 14.7792 27.8425 15.0763C27.3278 15.3734 27.1515 16.0314 27.4486 16.5461Z" fill="#0E1821" stroke="#0E1821" stroke-width="0.96" mask="url(#path-7-inside-1_217_8828)"/>
<circle cx="9.17708" cy="27.0952" r="1.36157" transform="rotate(-30 9.17708 27.0952)" fill="white"/>
<mask id="path-9-inside-2_217_8828" fill="white">
<path d="M12.0407 25.4418C12.9539 27.0234 12.412 29.0457 10.8304 29.9588C9.24886 30.8719 7.22654 30.3301 6.31343 28.7485C5.40032 27.167 5.9422 25.1446 7.52375 24.2315C9.10531 23.3184 11.1276 23.8603 12.0407 25.4418ZM8.24529 27.6332C8.54241 28.1478 9.20044 28.3241 9.71506 28.027C10.2297 27.7299 10.406 27.0718 10.1089 26.5572C9.81176 26.0426 9.15373 25.8663 8.63912 26.1634C8.1245 26.4605 7.94818 27.1185 8.24529 27.6332Z"/>
</mask>
<path d="M12.0407 25.4418C12.9539 27.0234 12.412 29.0457 10.8304 29.9588C9.24886 30.8719 7.22654 30.3301 6.31343 28.7485C5.40032 27.167 5.9422 25.1446 7.52375 24.2315C9.10531 23.3184 11.1276 23.8603 12.0407 25.4418ZM8.24529 27.6332C8.54241 28.1478 9.20044 28.3241 9.71506 28.027C10.2297 27.7299 10.406 27.0718 10.1089 26.5572C9.81176 26.0426 9.15373 25.8663 8.63912 26.1634C8.1245 26.4605 7.94818 27.1185 8.24529 27.6332Z" fill="#0E1821" stroke="#0E1821" stroke-width="0.96" mask="url(#path-9-inside-2_217_8828)"/>
<circle cx="9.11999" cy="8.32" r="5.52" fill="white" stroke="#0E1821" stroke-width="0.48"/>
<path d="M7.8503 4.50309C7.86591 4.45022 7.89828 4.4038 7.94258 4.3708C7.98688 4.3378 8.04073 4.31998 8.09605 4.32001H10.1439C10.1845 4.32004 10.2244 4.32966 10.2605 4.34808C10.2966 4.3665 10.3277 4.39319 10.3514 4.42595C10.3751 4.45872 10.3907 4.49662 10.3968 4.53654C10.4029 4.57646 10.3994 4.61726 10.3866 4.65557L9.47529 7.37983H11.4238C11.4718 7.37979 11.5188 7.39317 11.5594 7.41843C11.6001 7.44369 11.6329 7.47982 11.6539 7.52271C11.675 7.5656 11.6836 7.61352 11.6786 7.66102C11.6737 7.70852 11.6555 7.75368 11.6261 7.79137L8.04229 12.3811C8.00558 12.4283 7.95338 12.4612 7.8948 12.4741C7.83621 12.4869 7.77497 12.4788 7.72176 12.4512C7.66855 12.4237 7.62674 12.3784 7.60363 12.3232C7.58053 12.2681 7.5776 12.2066 7.59535 12.1496L8.5174 9.16472H6.81613C6.77633 9.16474 6.73708 9.15552 6.70148 9.13779C6.66589 9.12006 6.63493 9.0943 6.61108 9.06257C6.58722 9.03084 6.57113 8.99401 6.56406 8.95499C6.557 8.91598 6.55916 8.87586 6.57039 8.83783L7.8503 4.50309ZM8.28752 4.82998L7.15813 8.65475H8.864C8.90406 8.65474 8.94356 8.6641 8.97933 8.68207C9.0151 8.70004 9.04613 8.72612 9.06994 8.75822C9.09374 8.79031 9.10965 8.82753 9.11639 8.86686C9.12312 8.9062 9.1205 8.94656 9.10872 8.9847L8.49538 10.97L10.9006 7.88979H9.11998C9.07944 7.88976 9.03949 7.88014 9.00342 7.86172C8.96734 7.8433 8.93617 7.81661 8.91247 7.78385C8.88878 7.75108 8.87323 7.71318 8.86712 7.67326C8.86101 7.63334 8.8645 7.59255 8.87731 7.55423L9.78861 4.82998H8.28752Z" fill="#F15152"/>
</g>
<defs>
<clipPath id="clip0_217_8828">
<rect width="32" height="32" fill="white"/>
</clipPath>
</defs>
</svg>
