<svg width="32" height="32" viewBox="0 0 32 32" fill="none" xmlns="http://www.w3.org/2000/svg">
<path d="M24.6896 23.2158H16.5287V20.6933H20.6919C21.7525 20.6933 22.6123 19.8335 22.6123 18.7729V9.11969H24.6896V23.2158Z" fill="#4878A6" stroke="#0E1821" stroke-width="0.480098" stroke-linecap="round" stroke-linejoin="round"/>
<path d="M30.8407 20.679C30.1957 16.907 26.5364 15.8939 24.6895 15.8708V21.3609H30.236C30.6067 21.3609 30.9032 21.0444 30.8407 20.679Z" fill="#4878A6" stroke="#0E1821" stroke-width="0.480098" stroke-linecap="round" stroke-linejoin="round"/>
<path d="M12.9675 23.8836C12.9675 26.0962 11.1738 27.8899 8.96124 27.8899C6.74865 27.8899 4.95499 26.0962 4.95499 23.8836C4.95499 21.671 6.74865 19.8773 8.96124 19.8773C11.1738 19.8773 12.9675 21.671 12.9675 23.8836ZM6.88805 23.8836C6.88805 25.0286 7.81625 25.9568 8.96124 25.9568C10.1062 25.9568 11.0344 25.0286 11.0344 23.8836C11.0344 22.7386 10.1062 21.8104 8.96124 21.8104C7.81625 21.8104 6.88805 22.7386 6.88805 23.8836Z" fill="#0E1821"/>
<circle cx="8.96105" cy="23.8834" r="1.98565" fill="white" stroke="#0E1821" stroke-width="0.480098"/>
<circle cx="8.96124" cy="23.8836" r="3.7662" stroke="#0E1821" stroke-width="0.480098"/>
<path d="M30.7734 23.8836C30.7734 26.0962 28.9798 27.8899 26.7672 27.8899C24.5546 27.8899 22.7609 26.0962 22.7609 23.8836C22.7609 21.671 24.5546 19.8773 26.7672 19.8773C28.9798 19.8773 30.7734 21.671 30.7734 23.8836ZM24.694 23.8836C24.694 25.0286 25.6222 25.9568 26.7672 25.9568C27.9122 25.9568 28.8404 25.0286 28.8404 23.8836C28.8404 22.7386 27.9122 21.8104 26.7672 21.8104C25.6222 21.8104 24.694 22.7386 24.694 23.8836Z" fill="#0E1821"/>
<circle cx="26.7666" cy="23.8834" r="1.98565" fill="white" stroke="#0E1821" stroke-width="0.480098"/>
<circle cx="26.7672" cy="23.8836" r="3.7662" stroke="#0E1821" stroke-width="0.480098"/>
<line x1="1.04028" y1="27.6497" x2="31.1264" y2="27.6497" stroke="#0E1821" stroke-width="0.480098" stroke-linecap="round"/>
<circle cx="2.28403" cy="16.9098" r="1.24375" fill="#FBB13C" stroke="#0E1821" stroke-width="0.480098"/>
<path d="M2.22751 18.8581C2.22751 16.0299 4.52027 13.7371 7.34855 13.7371H16.5854V23.1984H2.78762C2.47828 23.1984 2.22751 22.9477 2.22751 22.6383V18.8581Z" fill="#2A5275" stroke="#0E1821" stroke-width="0.480098"/>
<path d="M3.7113 20.8406C3.7113 19.2939 4.96516 18.04 6.51187 18.04H13.2962C14.0474 18.04 14.6564 18.649 14.6564 19.4003V23.1983H3.7113V20.8406Z" fill="#4878A6" stroke="#0E1821" stroke-width="0.480098"/>
<path d="M3.41467 12.6067C3.41467 12.0018 3.90508 11.5114 4.51004 11.5114H12.0032H16.232C16.837 11.5114 17.3274 12.0018 17.3274 12.6067C17.3274 13.2117 16.837 13.7021 16.232 13.7021H12.0032H4.51004C3.90508 13.7021 3.41467 13.2117 3.41467 12.6067Z" fill="#F15152" stroke="#0E1821" stroke-width="0.480098"/>
<path d="M20.1815 6.67132C20.1815 5.32884 21.2698 4.24054 22.6123 4.24054H26.2286C26.8031 4.24054 27.2688 4.70626 27.2688 5.28075V8.0619C27.2688 8.63639 26.8031 9.10211 26.2286 9.10211H22.6123C21.2698 9.10211 20.1815 8.01381 20.1815 6.67132Z" fill="#4878A6" stroke="#0E1821" stroke-width="0.480098"/>
<rect x="17.3621" y="6.02133" width="6.49375" height="1.7456" rx="0.872799" fill="#2A5275" stroke="#0E1821" stroke-width="0.480098"/>
<path d="M28.8833 4.98236L27.2871 5.54775L27.2812 7.87735L28.8919 8.1413L28.8833 4.98236Z" fill="#4878A6" stroke="#0E1821" stroke-width="0.480098" stroke-linecap="round" stroke-linejoin="round"/>
<circle cx="29.0589" cy="6.66512" r="0.964468" transform="rotate(9.30666 29.0589 6.66512)" fill="#FBB13C" stroke="#0E1821" stroke-width="0.480098"/>
</svg>
