<svg width="32" height="32" viewBox="0 0 32 32" fill="none" xmlns="http://www.w3.org/2000/svg">
<path fill-rule="evenodd" clip-rule="evenodd" d="M7.47626 24.6292L14.6731 17.8072V14.4337H15.7976V17.4324H22.9944L22.6945 14.2088C22.6195 12.9344 22.9644 11.9898 25.8431 11.51L26.068 12.6345C25.4433 12.6595 24.1638 12.9944 24.0439 13.5341C23.924 14.0739 24.7436 21.1058 25.1684 24.5542L24.0439 25.004L23.2193 19.0067L16.9221 24.8541L16.4723 23.7296L21.9448 18.5569H15.7976V23.8795V26.1285H6.42673L7.47626 24.6292ZM14.6731 19.4565V23.8795V25.154H8.45083L14.6731 19.4565Z" fill="#4878A6" stroke="#0E1821" stroke-width="0.480098" stroke-linecap="round" stroke-linejoin="round"/>
<circle cx="7.10123" cy="25.9037" r="5.38245" stroke="#0E1821" stroke-width="0.480098"/>
<path d="M12.4238 25.9038C12.4238 28.8434 10.0408 31.2264 7.1012 31.2264C4.16159 31.2264 1.77856 28.8434 1.77856 25.9038C1.77856 22.9642 4.16159 20.5812 7.1012 20.5812C10.0408 20.5812 12.4238 22.9642 12.4238 25.9038ZM3.20905 25.9038C3.20905 28.0534 4.95162 29.796 7.1012 29.796C9.25078 29.796 10.9934 28.0534 10.9934 25.9038C10.9934 23.7542 9.25078 22.0117 7.1012 22.0117C4.95162 22.0117 3.20905 23.7542 3.20905 25.9038Z" fill="#0E1821"/>
<circle cx="7.10123" cy="25.9037" r="5.38245" stroke="#0E1821" stroke-width="0.480098"/>
<circle cx="7.10129" cy="25.9036" r="3.73319" stroke="#0E1821" stroke-width="0.480098"/>
<circle cx="7.10128" cy="25.9037" r="1.33425" fill="#F15152" stroke="#0E1821" stroke-width="0.480098"/>
<path d="M30.2663 25.9038C30.2663 28.8434 27.8833 31.2264 24.9437 31.2264C22.0041 31.2264 19.621 28.8434 19.621 25.9038C19.621 22.9642 22.0041 20.5812 24.9437 20.5812C27.8833 20.5812 30.2663 22.9642 30.2663 25.9038ZM21.0515 25.9038C21.0515 28.0534 22.7941 29.796 24.9437 29.796C27.0932 29.796 28.8358 28.0534 28.8358 25.9038C28.8358 23.7542 27.0932 22.0117 24.9437 22.0117C22.7941 22.0117 21.0515 23.7542 21.0515 25.9038Z" fill="#0E1821"/>
<circle cx="24.9435" cy="25.9037" r="5.38245" stroke="#0E1821" stroke-width="0.480098"/>
<circle cx="24.9437" cy="25.9036" r="3.73319" stroke="#0E1821" stroke-width="0.480098"/>
<circle cx="24.9437" cy="25.9037" r="1.33425" fill="#F15152" stroke="#0E1821" stroke-width="0.480098"/>
<circle cx="15.2731" cy="25.379" r="1.85902" fill="#2A5275" stroke="#0E1821" stroke-width="0.480098"/>
<line x1="15.2828" y1="25.3891" x2="15.2828" y2="28.6674" stroke="#0E1821" stroke-width="0.320065" stroke-linecap="round"/>
<line x1="15.9326" y1="28.6176" x2="14.6135" y2="28.6176" stroke="#0E1821" stroke-width="0.480098" stroke-linecap="round"/>
<circle cx="26.9676" cy="11.735" r="1.25928" fill="#F15152" stroke="#0E1821" stroke-width="0.480098"/>
<path d="M5.67725 9.78586V14.9628C5.67725 15.5815 6.17879 16.0831 6.79747 16.0831H14.8232" stroke="#0E1821" stroke-width="0.480098"/>
<circle cx="19.7709" cy="6.03746" r="5.15755" fill="white" stroke="#0E1821" stroke-width="0.480098"/>
<path d="M18.581 2.46068C18.5956 2.41114 18.6259 2.36765 18.6674 2.33672C18.7089 2.30579 18.7594 2.28909 18.8112 2.28912H20.7303C20.7682 2.28915 20.8057 2.29817 20.8395 2.31543C20.8733 2.33269 20.9025 2.3577 20.9247 2.3884C20.9469 2.41911 20.9615 2.45463 20.9672 2.49203C20.9729 2.52944 20.9697 2.56767 20.9577 2.60357L20.1037 5.15643H21.9296C21.9746 5.1564 22.0186 5.16893 22.0567 5.1926C22.0948 5.21628 22.1255 5.25013 22.1453 5.29032C22.165 5.33052 22.173 5.37542 22.1684 5.41993C22.1638 5.46444 22.1467 5.50676 22.1192 5.54208L18.7609 9.84304C18.7265 9.88731 18.6775 9.91815 18.6226 9.93016C18.5677 9.94217 18.5104 9.9346 18.4605 9.90877C18.4106 9.88294 18.3715 9.84049 18.3498 9.78882C18.3282 9.73716 18.3254 9.67956 18.342 9.62608L19.2061 6.82902H17.6118C17.5746 6.82905 17.5378 6.82041 17.5044 6.80379C17.4711 6.78717 17.442 6.76304 17.4197 6.7333C17.3973 6.70357 17.3823 6.66905 17.3756 6.63249C17.369 6.59593 17.371 6.55834 17.3816 6.5227L18.581 2.46068ZM18.9907 2.76701L17.9323 6.35114H19.5309C19.5684 6.35113 19.6054 6.3599 19.6389 6.37674C19.6725 6.39358 19.7015 6.41802 19.7239 6.4481C19.7462 6.47817 19.7611 6.51305 19.7674 6.54991C19.7737 6.58677 19.7712 6.62459 19.7602 6.66033L19.1854 8.52073L21.4393 5.63431H19.7707C19.7328 5.63428 19.6953 5.62527 19.6615 5.60801C19.6277 5.59075 19.5985 5.56574 19.5763 5.53503C19.5541 5.50433 19.5395 5.46881 19.5338 5.4314C19.5281 5.394 19.5313 5.35577 19.5433 5.31987L20.3973 2.76701H18.9907Z" fill="#F15152"/>
<path d="M5.01733 8.82644H6.33643V9.4557C6.33643 9.58827 6.22896 9.69575 6.09639 9.69575H5.25738C5.1248 9.69575 5.01733 9.58827 5.01733 9.4557V8.82644Z" fill="#F15152" stroke="#0E1821" stroke-width="0.480098"/>
<path d="M4.26785 6.72735H7.08629V8.55607C7.08629 8.68865 6.97881 8.79612 6.84624 8.79612H4.5079C4.37532 8.79612 4.26785 8.68865 4.26785 8.55607V6.72735Z" fill="#F15152" stroke="#0E1821" stroke-width="0.480098"/>
<line x1="4.83725" y1="6.39722" x2="4.83725" y2="5.52792" stroke="#0E1821" stroke-width="0.480098" stroke-linecap="round"/>
<line x1="6.4867" y1="6.39722" x2="6.4867" y2="5.52792" stroke="#0E1821" stroke-width="0.480098" stroke-linecap="round"/>
<path d="M18.1965 14.3588H12.6489C12.0492 14.2838 11.917 14.0943 11.7494 13.7591C11.5994 13.4592 11.6744 12.7845 11.8243 12.4846C12.0049 12.1236 12.4241 11.8766 12.7239 11.8099C13.3986 11.66 14.1483 11.81 14.748 12.1098C15.2222 12.3469 15.5984 12.9783 16.0225 13.0844C16.3223 13.1594 18.1215 13.1593 18.4214 13.3093C18.7213 13.4592 18.7962 14.1589 18.1965 14.3588Z" fill="white" stroke="#0E1821" stroke-width="0.480098" stroke-linecap="round" stroke-linejoin="round"/>
</svg>
