<svg width="32" height="32" viewBox="0 0 32 32" fill="none" xmlns="http://www.w3.org/2000/svg">
<path d="M8.80213 25.6049C8.80213 27.9913 6.8676 29.9258 4.48125 29.9258C2.09489 29.9258 0.16037 27.9913 0.16037 25.6049C0.16037 23.2186 2.09489 21.284 4.48125 21.284C6.8676 21.284 8.80213 23.2186 8.80213 25.6049ZM2.24525 25.6049C2.24525 26.8398 3.24634 27.8409 4.48125 27.8409C5.71616 27.8409 6.71725 26.8398 6.71725 25.6049C6.71725 24.37 5.71616 23.3689 4.48125 23.3689C3.24634 23.3689 2.24525 24.37 2.24525 25.6049Z" fill="#0E1821"/>
<circle cx="4.48121" cy="25.605" r="2.16044" stroke="#0E1821" stroke-width="0.480098"/>
<circle cx="4.48125" cy="25.6049" r="4.08083" stroke="#0E1821" stroke-width="0.480098"/>
<path d="M31.8465 25.6049C31.8465 27.9913 29.912 29.9258 27.5257 29.9258C25.1393 29.9258 23.2048 27.9913 23.2048 25.6049C23.2048 23.2186 25.1393 21.284 27.5257 21.284C29.912 21.284 31.8465 23.2186 31.8465 25.6049ZM25.2897 25.6049C25.2897 26.8398 26.2907 27.8409 27.5257 27.8409C28.7606 27.8409 29.7617 26.8398 29.7617 25.6049C29.7617 24.37 28.7606 23.3689 27.5257 23.3689C26.2907 23.3689 25.2897 24.37 25.2897 25.6049Z" fill="#0E1821"/>
<circle cx="27.5258" cy="25.605" r="2.16044" stroke="#0E1821" stroke-width="0.480098"/>
<circle cx="27.5257" cy="25.6049" r="4.08083" stroke="#0E1821" stroke-width="0.480098"/>
<path d="M22.2449 22.5644H10.4025L10.6425 25.6851H19.6844L22.2449 22.5644Z" fill="#F15152" stroke="#0E1821" stroke-width="0.480098" stroke-linecap="round" stroke-linejoin="round"/>
<path d="M4.83396 18.6513L4.84428 18.6528L4.8547 18.6533C8.18294 18.8292 10.8919 21.3433 11.3683 24.5832C11.4286 24.9937 11.0868 25.3649 10.6226 25.3649C10.1791 25.3649 9.79193 24.9949 9.68822 24.5027C9.18061 22.0933 7.04338 20.2844 4.48298 20.2836L1.68409 20.2439L1.68409 20.2438H1.68068C1.23877 20.2438 0.880521 19.8856 0.880521 19.4437C0.880521 19.0018 1.23877 18.6435 1.68068 18.6435H4.7213C4.75967 18.6435 4.79727 18.6462 4.83396 18.6513Z" fill="#2A5275" stroke="#0E1821" stroke-width="0.480098"/>
<path d="M23.2929 3.96042L23.259 3.76048H23.0562L21.3648 3.76048V2.64026H24.0053C24.1045 2.64026 24.1901 2.70052 24.2266 2.78702L25.4709 10.0071L24.3498 10.1971L23.2929 3.96042Z" fill="#4878A6" stroke="#0E1821" stroke-width="0.480098"/>
<mask id="path-10-inside-1_18_17" fill="white">
<path fill-rule="evenodd" clip-rule="evenodd" d="M26.5003 16.3563C26.001 15.9983 25.306 16.1128 24.948 16.6121L19.3034 24.4847L4.64107 24.4847C4.02239 24.4847 3.52084 24.9862 3.52084 25.6049C3.52084 26.2236 4.02239 26.7251 4.64107 26.7251H19.8442C20.175 26.7251 20.4723 26.5817 20.6774 26.3537C20.7266 26.3066 20.7723 26.2543 20.8134 26.1969L26.7562 17.9085C27.1142 17.4092 26.9996 16.7142 26.5003 16.3563Z"/>
</mask>
<path fill-rule="evenodd" clip-rule="evenodd" d="M26.5003 16.3563C26.001 15.9983 25.306 16.1128 24.948 16.6121L19.3034 24.4847L4.64107 24.4847C4.02239 24.4847 3.52084 24.9862 3.52084 25.6049C3.52084 26.2236 4.02239 26.7251 4.64107 26.7251H19.8442C20.175 26.7251 20.4723 26.5817 20.6774 26.3537C20.7266 26.3066 20.7723 26.2543 20.8134 26.1969L26.7562 17.9085C27.1142 17.4092 26.9996 16.7142 26.5003 16.3563Z" fill="#4878A6"/>
<path d="M24.948 16.6121L24.5579 16.3323V16.3323L24.948 16.6121ZM26.5003 16.3563L26.7801 15.9661L26.5003 16.3563ZM19.3034 24.4847V24.9648H19.5499L19.6936 24.7644L19.3034 24.4847ZM4.64107 24.4847V24.0046V24.4847ZM20.6774 26.3537L20.3456 26.0067L20.3325 26.0192L20.3204 26.0327L20.6774 26.3537ZM20.8134 26.1969L20.4232 25.9171L20.4232 25.9171L20.8134 26.1969ZM26.7562 17.9085L27.1463 18.1883L27.1463 18.1883L26.7562 17.9085ZM25.3382 16.8919C25.5417 16.608 25.9368 16.5429 26.2206 16.7464L26.7801 15.9661C26.0653 15.4536 25.0704 15.6176 24.5579 16.3323L25.3382 16.8919ZM19.6936 24.7644L25.3382 16.8919L24.5579 16.3323L18.9132 24.2049L19.6936 24.7644ZM4.64107 24.9648L19.3034 24.9648V24.0046L4.64107 24.0046V24.9648ZM4.00094 25.6049C4.00094 25.2514 4.28754 24.9648 4.64107 24.9648V24.0046C3.75723 24.0046 3.04075 24.7211 3.04075 25.6049H4.00094ZM4.64107 26.245C4.28754 26.245 4.00094 25.9584 4.00094 25.6049H3.04075C3.04075 26.4887 3.75723 27.2052 4.64107 27.2052V26.245ZM19.8442 26.245H4.64107V27.2052H19.8442V26.245ZM20.3204 26.0327C20.2025 26.1637 20.0332 26.245 19.8442 26.245V27.2052C20.3168 27.2052 20.7421 26.9997 21.0344 26.6747L20.3204 26.0327ZM20.4232 25.9171C20.3995 25.9502 20.3735 25.98 20.3456 26.0067L21.0092 26.7007C21.0798 26.6331 21.145 26.5583 21.2036 26.4766L20.4232 25.9171ZM26.366 17.6288L20.4232 25.9171L21.2036 26.4766L27.1463 18.1883L26.366 17.6288ZM26.2206 16.7464C26.5044 16.9499 26.5695 17.345 26.366 17.6288L27.1463 18.1883C27.6588 17.4735 27.4949 16.4786 26.7801 15.9661L26.2206 16.7464Z" fill="#0E1821" mask="url(#path-10-inside-1_18_17)"/>
<rect x="24.026" y="10.0917" width="1.74476" height="16.4546" rx="0.872381" transform="rotate(-9.61845 24.026 10.0917)" fill="#4878A6" stroke="#0E1821" stroke-width="0.480098"/>
<rect x="21.3644" y="2.32023" width="1.76036" height="4.64094" rx="0.880179" transform="rotate(90 21.3644 2.32023)" fill="#2A5275" stroke="#0E1821" stroke-width="0.480098"/>
<path d="M26.0058 2.80019L24.4054 3.68036L24.8055 6.16087H26.5659L26.0058 2.80019Z" fill="#4878A6" stroke="#0E1821" stroke-width="0.480098" stroke-linecap="round" stroke-linejoin="round"/>
<path fill-rule="evenodd" clip-rule="evenodd" d="M26.4729 5.60064L26.1362 3.58058C26.2455 3.54155 26.3633 3.52029 26.486 3.52029C27.0605 3.52029 27.5262 3.98601 27.5262 4.56051C27.5262 5.135 27.0605 5.60072 26.486 5.60072C26.4816 5.60072 26.4773 5.60069 26.4729 5.60064Z" fill="#FBB13C"/>
<path d="M26.4729 5.60064L26.2361 5.6401L26.2691 5.83817L26.4699 5.84067L26.4729 5.60064ZM26.1362 3.58058L26.0555 3.35451L25.8664 3.42202L25.8994 3.62005L26.1362 3.58058ZM26.7097 5.56117L26.373 3.54112L25.8994 3.62005L26.2361 5.6401L26.7097 5.56117ZM26.2169 3.80666C26.3007 3.77674 26.3912 3.76034 26.486 3.76034V3.28025C26.3354 3.28025 26.1903 3.30636 26.0555 3.35451L26.2169 3.80666ZM26.486 3.76034C26.9279 3.76034 27.2862 4.11859 27.2862 4.56051H27.7663C27.7663 3.85344 27.1931 3.28025 26.486 3.28025V3.76034ZM27.2862 4.56051C27.2862 5.00242 26.9279 5.36067 26.486 5.36067V5.84077C27.1931 5.84077 27.7663 5.26757 27.7663 4.56051H27.2862ZM26.486 5.36067C26.4826 5.36067 26.4792 5.36065 26.4759 5.36061L26.4699 5.84067C26.4753 5.84073 26.4806 5.84077 26.486 5.84077V5.36067Z" fill="#0E1821"/>
<circle cx="16.0034" cy="15.2029" r="5.52112" fill="white" stroke="#0E1821" stroke-width="0.480098"/>
<path d="M14.7333 11.3853C14.749 11.3324 14.7813 11.286 14.8256 11.253C14.87 11.22 14.9238 11.2021 14.9791 11.2022H17.0274C17.068 11.2022 17.1079 11.2118 17.144 11.2303C17.1801 11.2487 17.2113 11.2754 17.235 11.3081C17.2587 11.3409 17.2742 11.3788 17.2803 11.4188C17.2865 11.4587 17.283 11.4995 17.2701 11.5378L16.3587 14.2626H18.3076C18.3556 14.2626 18.4025 14.276 18.4432 14.3012C18.4839 14.3265 18.5167 14.3626 18.5377 14.4055C18.5588 14.4484 18.5674 14.4964 18.5625 14.5439C18.5575 14.5914 18.5393 14.6366 18.5099 14.6742L14.9254 19.2649C14.8887 19.3122 14.8364 19.3451 14.7778 19.3579C14.7193 19.3707 14.658 19.3626 14.6048 19.3351C14.5516 19.3075 14.5097 19.2622 14.4866 19.207C14.4635 19.1519 14.4606 19.0904 14.4783 19.0333L15.4006 16.0479H13.699C13.6592 16.0479 13.6199 16.0387 13.5843 16.0209C13.5487 16.0032 13.5177 15.9774 13.4939 15.9457C13.47 15.914 13.4539 15.8771 13.4468 15.8381C13.4398 15.7991 13.4419 15.759 13.4532 15.7209L14.7333 11.3853ZM15.1707 11.7123L14.041 15.5378H15.7472C15.7873 15.5378 15.8268 15.5472 15.8626 15.5651C15.8984 15.5831 15.9294 15.6092 15.9532 15.6413C15.977 15.6734 15.993 15.7106 15.9997 15.75C16.0064 15.7893 16.0038 15.8297 15.992 15.8678L15.3786 17.8535L17.7843 14.7727H16.0033C15.9627 14.7727 15.9228 14.763 15.8867 14.7446C15.8506 14.7262 15.8194 14.6995 15.7957 14.6667C15.772 14.634 15.7565 14.596 15.7504 14.5561C15.7443 14.5162 15.7478 14.4754 15.7606 14.4371L16.6721 11.7123H15.1707Z" fill="#F15152"/>
</svg>
