<svg width="32" height="32" viewBox="0 0 32 32" fill="none" xmlns="http://www.w3.org/2000/svg">
<rect x="0.560239" y="9.20172" width="4.80098" height="13.6028" rx="2.40049" fill="#0E1821" stroke="#0E1821" stroke-width="0.480098"/>
<mask id="path-2-inside-1_12_1501" fill="white">
<path fill-rule="evenodd" clip-rule="evenodd" d="M5.60131 16.6432H3.84102C2.95718 16.6432 2.24069 15.9267 2.24069 15.0429V9.06105C2.4696 8.99631 2.71114 8.96167 2.96078 8.96167C4.4191 8.96167 5.60131 10.1439 5.60131 11.6022V16.6432Z"/>
</mask>
<path fill-rule="evenodd" clip-rule="evenodd" d="M5.60131 16.6432H3.84102C2.95718 16.6432 2.24069 15.9267 2.24069 15.0429V9.06105C2.4696 8.99631 2.71114 8.96167 2.96078 8.96167C4.4191 8.96167 5.60131 10.1439 5.60131 11.6022V16.6432Z" fill="white"/>
<path d="M5.60131 16.6432V17.1233H6.08141V16.6432H5.60131ZM2.24069 9.06105L2.11004 8.59907L1.76059 8.6979V9.06105H2.24069ZM5.60131 16.1631H3.84102V17.1233H5.60131V16.1631ZM3.84102 16.1631C3.22233 16.1631 2.72079 15.6616 2.72079 15.0429H1.76059C1.76059 16.1919 2.69203 17.1233 3.84102 17.1233V16.1631ZM2.72079 15.0429V9.06105H1.76059V15.0429H2.72079ZM2.37134 9.52303C2.55816 9.47019 2.75575 9.44177 2.96078 9.44177V8.48157C2.66653 8.48157 2.38104 8.52243 2.11004 8.59907L2.37134 9.52303ZM2.96078 9.44177C4.15395 9.44177 5.12122 10.409 5.12122 11.6022H6.08141C6.08141 9.87873 4.68426 8.48157 2.96078 8.48157V9.44177ZM5.12122 11.6022V16.6432H6.08141V11.6022H5.12122Z" fill="#0E1821" mask="url(#path-2-inside-1_12_1501)"/>
<rect x="26.4854" y="9.20172" width="4.80098" height="13.6028" rx="2.40049" fill="#0E1821" stroke="#0E1821" stroke-width="0.480098"/>
<path d="M5.36111 13.6825H15.0431C15.5292 13.6825 15.9233 14.0766 15.9233 14.5627V17.2833C15.9233 18.1229 15.2426 18.8036 14.403 18.8036H5.36111V13.6825Z" fill="#4878A6" stroke="#0E1821" stroke-width="0.480098"/>
<mask id="path-6-inside-2_12_1501" fill="white">
<path fill-rule="evenodd" clip-rule="evenodd" d="M26.2453 16.6431H28.0056C28.8894 16.6431 29.6059 15.9266 29.6059 15.0427V9.06084C29.377 8.99611 29.1355 8.96147 28.8858 8.96147C27.4275 8.96147 26.2453 10.1437 26.2453 11.602V16.6431Z"/>
</mask>
<path fill-rule="evenodd" clip-rule="evenodd" d="M26.2453 16.6431H28.0056C28.8894 16.6431 29.6059 15.9266 29.6059 15.0427V9.06084C29.377 8.99611 29.1355 8.96147 28.8858 8.96147C27.4275 8.96147 26.2453 10.1437 26.2453 11.602V16.6431Z" fill="white"/>
<path d="M26.2453 16.6431V17.1232H25.7652V16.6431H26.2453ZM29.6059 9.06084L29.7365 8.59886L30.086 8.69769V9.06084H29.6059ZM26.2453 16.163H28.0056V17.1232H26.2453V16.163ZM28.0056 16.163C28.6243 16.163 29.1258 15.6614 29.1258 15.0427H30.086C30.086 16.1917 29.1546 17.1232 28.0056 17.1232V16.163ZM29.1258 15.0427V9.06084H30.086V15.0427H29.1258ZM29.4752 9.52282C29.2884 9.46999 29.0909 9.44157 28.8858 9.44157V8.48137C29.1801 8.48137 29.4656 8.52223 29.7365 8.59886L29.4752 9.52282ZM28.8858 9.44157C27.6927 9.44157 26.7254 10.4088 26.7254 11.602H25.7652C25.7652 9.87853 27.1624 8.48137 28.8858 8.48137V9.44157ZM26.7254 11.602V16.6431H25.7652V11.602H26.7254Z" fill="#0E1821" mask="url(#path-6-inside-2_12_1501)"/>
<path d="M26.4854 13.6825H16.8034C16.3173 13.6825 15.9233 14.0766 15.9233 14.5627V17.2833C15.9233 18.1229 16.6039 18.8036 17.4436 18.8036H26.4854V13.6825Z" fill="#4878A6" stroke="#0E1821" stroke-width="0.480098"/>
<line x1="5.6008" y1="16.4032" x2="26.245" y2="16.4032" stroke="#0E1821" stroke-width="0.480098"/>
<rect x="12.3225" y="17.1232" width="0.960195" height="3.52072" rx="0.480098" transform="rotate(90 12.3225 17.1232)" fill="white"/>
<rect x="23.0444" y="17.1232" width="0.960195" height="3.52072" rx="0.480098" transform="rotate(90 23.0444 17.1232)" fill="white"/>
<line x1="6.96139" y1="14.9628" x2="14.1629" y2="14.9628" stroke="#0E1821" stroke-width="0.480098" stroke-linecap="round"/>
<line x1="17.6837" y1="14.9628" x2="24.8851" y2="14.9628" stroke="#0E1821" stroke-width="0.480098" stroke-linecap="round"/>
</svg>
