<svg width="32" height="32" viewBox="0 0 32 32" fill="none" xmlns="http://www.w3.org/2000/svg">
<g clip-path="url(#clip0_18_560)">
<rect x="15.2854" y="2.71721" width="1.50071" height="17.4971" fill="#4878A6" stroke="#070C11" stroke-width="0.463768"/>
<rect x="2.6566" y="19.8369" width="4.16678" height="11.8844" rx="2.08339" fill="#070C11" stroke="#070C11" stroke-width="0.463768"/>
<mask id="path-3-inside-1_18_560" fill="white">
<path fill-rule="evenodd" clip-rule="evenodd" d="M7.05525 26.3395H5.65438C4.80061 26.3395 4.10849 25.6474 4.10849 24.7936V19.6914C4.30923 19.6346 4.52105 19.6042 4.73997 19.6042C6.01866 19.6042 7.05525 20.6408 7.05525 21.9195V26.3395Z"/>
</mask>
<path fill-rule="evenodd" clip-rule="evenodd" d="M7.05525 26.3395H5.65438C4.80061 26.3395 4.10849 25.6474 4.10849 24.7936V19.6914C4.30923 19.6346 4.52105 19.6042 4.73997 19.6042C6.01866 19.6042 7.05525 20.6408 7.05525 21.9195V26.3395Z" fill="white"/>
<path d="M7.05525 26.3395V26.8033H7.51901V26.3395H7.05525ZM4.10849 19.6914L3.98226 19.2451L3.64472 19.3406V19.6914H4.10849ZM7.05525 25.8758H5.65438V26.8033H7.05525V25.8758ZM5.65438 25.8758C5.05674 25.8758 4.57226 25.3913 4.57226 24.7936H3.64472C3.64472 25.9035 4.54448 26.8033 5.65438 26.8033V25.8758ZM4.57226 24.7936V19.6914H3.64472V24.7936H4.57226ZM4.23472 20.1376C4.39479 20.0923 4.56415 20.068 4.73997 20.068V19.1404C4.47796 19.1404 4.22367 19.1768 3.98226 19.2451L4.23472 20.1376ZM4.73997 20.068C5.76253 20.068 6.59148 20.8969 6.59148 21.9195H7.51901C7.51901 20.3846 6.2748 19.1404 4.73997 19.1404V20.068ZM6.59148 21.9195V26.3395H7.51901V21.9195H6.59148Z" fill="#070C11" mask="url(#path-3-inside-1_18_560)"/>
<rect x="25.3883" y="19.8361" width="4.16678" height="11.8844" rx="2.08339" fill="#070C11" stroke="#070C11" stroke-width="0.463768"/>
<mask id="path-6-inside-2_18_560" fill="white">
<path fill-rule="evenodd" clip-rule="evenodd" d="M25.1562 26.3395H26.5571C27.4108 26.3395 28.103 25.6474 28.103 24.7936V19.6913C27.9022 19.6345 27.6904 19.6042 27.4715 19.6042C26.1928 19.6042 25.1562 20.6407 25.1562 21.9194V26.3395Z"/>
</mask>
<path fill-rule="evenodd" clip-rule="evenodd" d="M25.1562 26.3395H26.5571C27.4108 26.3395 28.103 25.6474 28.103 24.7936V19.6913C27.9022 19.6345 27.6904 19.6042 27.4715 19.6042C26.1928 19.6042 25.1562 20.6407 25.1562 21.9194V26.3395Z" fill="white"/>
<path d="M25.1562 26.3395V26.8033H24.6925V26.3395H25.1562ZM28.103 19.6913L28.2292 19.245L28.5667 19.3405V19.6913H28.103ZM25.1562 25.8757H26.5571V26.8033H25.1562V25.8757ZM26.5571 25.8757C27.1547 25.8757 27.6392 25.3912 27.6392 24.7936H28.5667C28.5667 25.9035 27.667 26.8033 26.5571 26.8033V25.8757ZM27.6392 24.7936V19.6913H28.5667V24.7936H27.6392ZM27.9767 20.1376C27.8167 20.0923 27.6473 20.0679 27.4715 20.0679V19.1404C27.7335 19.1404 27.9878 19.1768 28.2292 19.245L27.9767 20.1376ZM27.4715 20.0679C26.449 20.0679 25.62 20.8969 25.62 21.9194H24.6925C24.6925 20.3846 25.9367 19.1404 27.4715 19.1404V20.0679ZM25.62 21.9194V26.3395H24.6925V21.9194H25.62Z" fill="#070C11" mask="url(#path-6-inside-2_18_560)"/>
<line x1="6.63434" y1="28.2126" x2="25.2968" y2="28.2126" stroke="#070C11" stroke-width="0.463768"/>
<mask id="path-9-inside-3_18_560" fill="white">
<path fill-rule="evenodd" clip-rule="evenodd" d="M16.0357 19.7446C14.8732 19.7446 13.9309 20.6869 13.9309 21.8494V23.5333H6.63431V26.3397H25.5774V23.5333H18.1405V21.8494C18.1405 20.6869 17.1981 19.7446 16.0357 19.7446Z"/>
</mask>
<path fill-rule="evenodd" clip-rule="evenodd" d="M16.0357 19.7446C14.8732 19.7446 13.9309 20.6869 13.9309 21.8494V23.5333H6.63431V26.3397H25.5774V23.5333H18.1405V21.8494C18.1405 20.6869 17.1981 19.7446 16.0357 19.7446Z" fill="#2A5275"/>
<path d="M13.9309 23.5333V23.997H14.3946V23.5333H13.9309ZM6.63431 23.5333V23.0695H6.17054V23.5333H6.63431ZM6.63431 26.3397H6.17054V26.8034H6.63431V26.3397ZM25.5774 26.3397V26.8034H26.0412V26.3397H25.5774ZM25.5774 23.5333H26.0412V23.0695H25.5774V23.5333ZM18.1405 23.5333H17.6767V23.997H18.1405V23.5333ZM14.3946 21.8494C14.3946 20.9431 15.1294 20.2084 16.0357 20.2084V19.2808C14.6171 19.2808 13.4671 20.4308 13.4671 21.8494H14.3946ZM14.3946 23.5333V21.8494H13.4671V23.5333H14.3946ZM6.63431 23.997H13.9309V23.0695H6.63431V23.997ZM7.09808 26.3397V23.5333H6.17054V26.3397H7.09808ZM25.5774 25.8759H6.63431V26.8034H25.5774V25.8759ZM25.1137 23.5333V26.3397H26.0412V23.5333H25.1137ZM18.1405 23.997H25.5774V23.0695H18.1405V23.997ZM17.6767 21.8494V23.5333H18.6042V21.8494H17.6767ZM16.0357 20.2084C16.942 20.2084 17.6767 20.9431 17.6767 21.8494H18.6042C18.6042 20.4308 17.4542 19.2808 16.0357 19.2808V20.2084Z" fill="#070C11" mask="url(#path-9-inside-3_18_560)"/>
<rect x="9.11137" y="0.893108" width="13.8488" height="1.07975" rx="0.539873" fill="#4878A6" stroke="#070C11" stroke-width="0.463768"/>
<rect x="13.4612" y="0.191448" width="5.14901" height="2.48294" rx="1.24147" fill="#F15152" stroke="#070C11" stroke-width="0.463768"/>
<circle cx="15.8954" cy="11.3255" r="1.73259" fill="#F15152" stroke="#070C11" stroke-width="0.463768"/>
<rect x="6.83052" y="26.0483" width="18.5507" height="2.16425" fill="white" stroke="#070C11" stroke-width="0.463768"/>
</g>
<defs>
<clipPath id="clip0_18_560">
<rect width="32" height="32" fill="white"/>
</clipPath>
</defs>
</svg>
