<svg width="32" height="32" viewBox="0 0 32 32" fill="none" xmlns="http://www.w3.org/2000/svg">
<path d="M5.68146 10.962C5.68146 9.85722 6.57707 8.96161 7.68186 8.96161H9.44222C10.547 8.96161 11.4426 9.85722 11.4426 10.962V12.9624H5.68146V10.962Z" fill="#2A5275" stroke="#0E1821" stroke-width="0.480098"/>
<path d="M14.4833 12.4024C14.4833 11.8279 14.949 11.3622 15.5235 11.3622H16.4837C17.0582 11.3622 17.5239 11.8279 17.5239 12.4024V13.4426H14.4833V12.4024Z" fill="#4878A6" stroke="#0E1821" stroke-width="0.480098"/>
<path d="M20.5641 10.962C20.5641 9.85722 21.4598 8.96161 22.5646 8.96161H24.3249C25.4297 8.96161 26.3253 9.85722 26.3253 10.962V12.9624H20.5641V10.962Z" fill="#2A5275" stroke="#0E1821" stroke-width="0.480098"/>
<path d="M2.24051 26.3765V18.5177C2.24051 14.3731 5.43985 10.2044 9.44197 11.282C10.3588 11.5289 11.2433 12.0727 11.8859 12.5425C12.5551 13.0317 13.3459 13.3625 14.1748 13.3625H17.8318C18.6607 13.3625 19.4515 13.0317 20.1207 12.5425C20.7633 12.0727 21.6479 11.5289 22.5646 11.282C26.5668 10.2044 29.7661 14.3731 29.7661 18.5177V26.3765C29.7661 28.5135 28.0337 30.2459 25.8967 30.2459C24.0947 30.2459 22.442 29.2441 21.6085 27.6464L19.7641 24.1113C19.3706 23.3572 18.5906 22.8844 17.7401 22.8844H14.2665C13.416 22.8844 12.636 23.3572 12.2425 24.1113L10.3981 27.6464C9.56456 29.2441 7.91195 30.2459 6.10992 30.2459C3.9729 30.2459 2.24051 28.5135 2.24051 26.3765Z" fill="white" stroke="#0E1821" stroke-width="0.480098" stroke-linecap="round" stroke-linejoin="round"/>
<path d="M12.803 17.5235C12.803 19.9098 10.8685 21.8443 8.48216 21.8443C6.09581 21.8443 4.16129 19.9098 4.16129 17.5235C4.16129 15.1371 6.09581 13.2026 8.48216 13.2026C10.8685 13.2026 12.803 15.1371 12.803 17.5235ZM6.29285 17.5235C6.29285 18.7326 7.27304 19.7128 8.48216 19.7128C9.69129 19.7128 10.6715 18.7326 10.6715 17.5235C10.6715 16.3143 9.69129 15.3341 8.48216 15.3341C7.27304 15.3341 6.29285 16.3143 6.29285 17.5235Z" fill="#2A5275"/>
<circle cx="8.48194" cy="17.5234" r="2.16044" stroke="#0E1821" stroke-width="0.480098"/>
<circle cx="8.48207" cy="17.5233" r="4.40089" stroke="#0E1821" stroke-width="0.480098"/>
<circle cx="20.3245" cy="17.5232" r="1.36028" fill="#F15152" stroke="#0E1821" stroke-width="0.480098"/>
<circle cx="23.445" cy="20.6439" r="1.36028" transform="rotate(-90 23.445 20.6439)" fill="#F15152" stroke="#0E1821" stroke-width="0.480098"/>
<circle cx="26.5654" cy="17.5232" r="1.36028" fill="#F15152" stroke="#0E1821" stroke-width="0.480098"/>
<circle cx="23.445" cy="14.4027" r="1.36028" transform="rotate(-90 23.445 14.4027)" fill="#F15152" stroke="#0E1821" stroke-width="0.480098"/>
<path d="M16.0034 11.3621V9.52177C16.0034 8.63794 16.7199 7.92144 17.6037 7.92144H20.6044C21.4661 7.92144 22.1647 7.22287 22.1647 6.36113V6.36113C22.1647 5.49939 21.4661 4.80081 20.6044 4.80081H17.6037C16.7199 4.80081 16.0034 4.08432 16.0034 3.20049V1.76019" stroke="#0E1821" stroke-width="0.480098" stroke-linecap="round" stroke-linejoin="round"/>
<line x1="14.9633" y1="16.0829" x2="17.0437" y2="16.0829" stroke="#0E1821" stroke-width="0.480098" stroke-linecap="round"/>
<line x1="14.0031" y1="20.884" x2="15.1233" y2="20.884" stroke="#0E1821" stroke-width="0.480098" stroke-linecap="round"/>
<line x1="16.8838" y1="20.884" x2="18.0041" y2="20.884" stroke="#0E1821" stroke-width="0.480098" stroke-linecap="round"/>
</svg>
