<svg width="32" height="32" viewBox="0 0 32 32" fill="none" xmlns="http://www.w3.org/2000/svg">
<rect x="5.84079" y="4.40063" width="20.3241" height="23.0447" rx="3.28067" fill="#4878A6" stroke="#0E1821" stroke-width="0.480098"/>
<rect x="7.76156" y="6.00091" width="16.4834" height="19.684" rx="1.68034" fill="white" stroke="#0E1821" stroke-width="0.480098"/>
<path d="M15.1298 8.12707C15.1405 8.09078 15.1628 8.05892 15.1933 8.03627C15.2237 8.01361 15.2608 8.00138 15.2988 8.0014H16.707C16.7349 8.00142 16.7623 8.00803 16.7872 8.02067C16.812 8.03332 16.8334 8.05164 16.8497 8.07413C16.866 8.09662 16.8767 8.12263 16.8809 8.15004C16.8851 8.17744 16.8827 8.20544 16.8739 8.23174L16.2472 10.1017H17.5871C17.6201 10.1017 17.6524 10.1109 17.6804 10.1282C17.7083 10.1455 17.7309 10.1703 17.7453 10.1998C17.7598 10.2292 17.7657 10.2621 17.7623 10.2947C17.7589 10.3273 17.7464 10.3583 17.7262 10.3842L15.2618 13.5346C15.2366 13.5671 15.2007 13.5897 15.1604 13.5985C15.1201 13.6073 15.078 13.6017 15.0414 13.5828C15.0048 13.5639 14.9761 13.5328 14.9602 13.4949C14.9443 13.4571 14.9423 13.4149 14.9545 13.3757L15.5885 11.3269H14.4187C14.3913 11.3269 14.3643 11.3206 14.3398 11.3084C14.3154 11.2962 14.2941 11.2785 14.2777 11.2568C14.2613 11.235 14.2502 11.2097 14.2453 11.1829C14.2405 11.1561 14.242 11.1286 14.2497 11.1025L15.1298 8.12707ZM15.4305 8.35145L14.6539 10.9768H15.8269C15.8544 10.9768 15.8816 10.9832 15.9062 10.9956C15.9308 11.0079 15.9521 11.0258 15.9685 11.0479C15.9849 11.0699 15.9958 11.0954 16.0004 11.1224C16.0051 11.1494 16.0033 11.1771 15.9952 11.2033L15.5734 12.5661L17.2273 10.4518H16.0029C15.975 10.4517 15.9476 10.4451 15.9227 10.4325C15.8979 10.4198 15.8765 10.4015 15.8602 10.379C15.8439 10.3565 15.8332 10.3305 15.829 10.3031C15.8248 10.2757 15.8272 10.2477 15.836 10.2214L16.4627 8.35145H15.4305Z" fill="#F15152"/>
<circle cx="11.8422" cy="17.6034" r="1.20024" fill="#FBB13C" stroke="#0E1821" stroke-width="0.480098"/>
<circle cx="11.8422" cy="21.7642" r="1.20024" fill="#FBB13C" stroke="#0E1821" stroke-width="0.480098"/>
<circle cx="16.003" cy="17.6034" r="1.20024" fill="#FBB13C" stroke="#0E1821" stroke-width="0.480098"/>
<circle cx="16.003" cy="21.7642" r="1.20024" fill="#FBB13C" stroke="#0E1821" stroke-width="0.480098"/>
<circle cx="20.1638" cy="17.6034" r="1.20024" fill="#FBB13C" stroke="#0E1821" stroke-width="0.480098"/>
<circle cx="20.1638" cy="21.7642" r="1.20024" fill="#FBB13C" stroke="#0E1821" stroke-width="0.480098"/>
<path d="M10.4026 1.52105C10.5184 0.872299 11.0826 0.3999 11.7417 0.3999H20.1042C20.7632 0.3999 21.3274 0.872299 21.4433 1.52105L21.9575 4.40071H9.88834L10.4026 1.52105Z" fill="#2A5275" stroke="#0E1821" stroke-width="0.480098"/>
<path d="M10.4026 30.325C10.5184 30.9737 11.0826 31.4461 11.7417 31.4461H20.1042C20.7632 31.4461 21.3274 30.9737 21.4433 30.325L21.9575 27.4453H9.88834L10.4026 30.325Z" fill="#2A5275" stroke="#0E1821" stroke-width="0.480098"/>
</svg>
