<svg width="32" height="32" viewBox="0 0 32 32" fill="none" xmlns="http://www.w3.org/2000/svg">
<path d="M0.959956 18.4034H8.80155H10.0018V23.4445H9.20163C8.05265 23.4445 7.12121 22.513 7.12121 21.364C7.12121 20.7896 6.65549 20.3238 6.081 20.3238H1.76012C1.05305 20.3238 0.479858 19.7506 0.479858 19.0436V18.8835C0.479858 18.6184 0.694806 18.4034 0.959956 18.4034Z" fill="#2A5275" stroke="#0E1821" stroke-width="0.480098" stroke-linecap="round" stroke-linejoin="round"/>
<path d="M31.0463 18.4034H23.2047H22.0045V23.4445H22.8047C23.9536 23.4445 24.8851 22.513 24.8851 21.364C24.8851 20.7896 25.3508 20.3238 25.9253 20.3238H30.2462C30.9532 20.3238 31.5264 19.7506 31.5264 19.0436V18.8835C31.5264 18.6184 31.3115 18.4034 31.0463 18.4034Z" fill="#2A5275" stroke="#0E1821" stroke-width="0.480098" stroke-linecap="round" stroke-linejoin="round"/>
<rect x="13.6031" y="16.7231" width="4.80098" height="13.6028" rx="2.40049" fill="#0E1821" stroke="#0E1821" stroke-width="0.480098"/>
<path d="M10.9624 25.6049C9.7352 23.0581 8.72198 19.2831 8.72198 15.5087C8.72198 7.65042 11.982 1.28 16.0035 1.28C20.0249 1.28 23.2849 7.65042 23.2849 15.5087C23.2849 19.3747 22.325 23.0405 21.0445 25.6049" stroke="#0E1821" stroke-width="0.480098"/>
<path d="M8.64193 15.5229C8.64193 10.7233 9.91934 6.50928 11.8426 3.98889V25.1248C11.8426 25.4341 11.5918 25.6849 11.2825 25.6849C11.0752 25.6849 10.8891 25.575 10.7972 25.4001C9.46861 22.87 8.64193 19.3829 8.64193 15.5229Z" fill="#4878A6" stroke="#0E1821" stroke-width="0.480098"/>
<path d="M20.1645 25.1248V3.98889C22.0877 6.50928 23.3651 10.7233 23.3651 15.5229C23.3651 19.3829 22.5384 22.87 21.2098 25.4001C21.1179 25.575 20.9318 25.6849 20.7246 25.6849C20.4152 25.6849 20.1645 25.4341 20.1645 25.1248Z" fill="#4878A6" stroke="#0E1821" stroke-width="0.480098"/>
<path d="M14.8135 6.2642C14.8291 6.21132 14.8614 6.1649 14.9058 6.13189C14.9501 6.09888 15.0039 6.08105 15.0593 6.08109H17.1075C17.1481 6.08112 17.188 6.09074 17.2241 6.10916C17.2602 6.12758 17.2914 6.15428 17.3151 6.18705C17.3388 6.21982 17.3543 6.25773 17.3605 6.29766C17.3666 6.33759 17.3631 6.37839 17.3503 6.41671L16.4388 9.14153H18.3877C18.4357 9.14149 18.4827 9.15487 18.5233 9.18014C18.564 9.2054 18.5968 9.24154 18.6179 9.28444C18.6389 9.32734 18.6475 9.37527 18.6426 9.42278C18.6376 9.47028 18.6194 9.51546 18.59 9.55315L15.0055 14.1438C14.9688 14.1911 14.9166 14.224 14.858 14.2368C14.7994 14.2496 14.7381 14.2415 14.6849 14.214C14.6317 14.1864 14.5898 14.1411 14.5667 14.0859C14.5436 14.0308 14.5407 13.9693 14.5584 13.9122L15.4807 10.9268H13.7791C13.7393 10.9268 13.7 10.9176 13.6644 10.8998C13.6288 10.8821 13.5978 10.8564 13.574 10.8246C13.5501 10.7929 13.534 10.756 13.527 10.717C13.5199 10.678 13.5221 10.6379 13.5333 10.5998L14.8135 6.2642ZM15.2508 6.59116L14.1211 10.4167H15.8274C15.8674 10.4167 15.9069 10.4261 15.9427 10.444C15.9785 10.462 16.0095 10.4881 16.0333 10.5202C16.0571 10.5523 16.0731 10.5895 16.0798 10.6289C16.0865 10.6682 16.0839 10.7086 16.0721 10.7467L15.4587 12.7324L17.8644 9.6516H16.0834C16.0428 9.65157 16.0029 9.64194 15.9668 9.62352C15.9307 9.6051 15.8995 9.5784 15.8758 9.54563C15.8521 9.51286 15.8366 9.47495 15.8305 9.43502C15.8244 9.39509 15.8279 9.35429 15.8407 9.31597L16.7522 6.59116H15.2508Z" fill="#F15152"/>
</svg>
