<svg width="24" height="14" viewBox="0 0 24 14" fill="none" xmlns="http://www.w3.org/2000/svg">
<path d="M1 8C1.55228 8 2 7.55228 2 7C2 6.44772 1.55228 6 1 6C0.447715 6 0 6.44772 0 7C0 7.55228 0.447715 8 1 8Z" fill="white"/>
<path d="M22.7243 6H6.27571C5.57116 6 5 6.42085 5 6.94V7.06C5 7.57915 5.57116 8 6.27571 8H22.7243C23.4288 8 24 7.57915 24 7.06V6.94C24 6.42085 23.4288 6 22.7243 6Z" fill="white"/>
<path d="M22.7467 12H1.25333C0.561136 12 0 12.4209 0 12.94V13.06C0 13.5791 0.561136 14 1.25333 14H22.7467C23.4389 14 24 13.5791 24 13.06V12.94C24 12.4209 23.4389 12 22.7467 12Z" fill="white"/>
<path d="M22.7467 0H1.25333C0.561136 0 0 0.420852 0 0.94V1.06C0 1.57915 0.561136 2 1.25333 2H22.7467C23.4389 2 24 1.57915 24 1.06V0.94C24 0.420852 23.4389 0 22.7467 0Z" fill="white"/>
</svg>
