<svg width="24" height="24" viewBox="0 0 24 24" fill="none" xmlns="http://www.w3.org/2000/svg">
<path d="M12.5901 1.41003L12.5897 1.40961C12.4339 1.25471 12.2231 1.16776 12.0034 1.16776C11.7836 1.16776 11.5729 1.25471 11.417 1.40961L11.4167 1.40995L1.41668 11.41L1.41633 11.4096L1.40803 11.4193C1.27178 11.5784 1.20058 11.7831 1.20867 11.9924C1.21675 12.2017 1.30352 12.4002 1.45164 12.5483C1.59975 12.6965 1.7983 12.7832 2.00761 12.7913C2.21692 12.7994 2.42158 12.7282 2.58068 12.592L2.581 12.5923L2.59002 12.5833L12 3.17334L21.41 12.5899L21.4096 12.5903L21.4194 12.5986C21.5785 12.7349 21.7831 12.8061 21.9924 12.798C22.2017 12.7899 22.4003 12.7031 22.5484 12.555C22.6965 12.4069 22.7833 12.2083 22.7914 11.999C22.7995 11.7897 22.7283 11.5851 22.592 11.426L22.5924 11.4257L22.5834 11.4167L12.5901 1.41003Z" fill="white" stroke="white" stroke-width="0.33"/>
<path d="M18.5017 21.1683H16.3333C15.8722 21.1683 15.4983 20.7945 15.4983 20.3333V15.6666C15.4983 15.0232 14.9767 14.5016 14.3333 14.5016H9.66667C9.02325 14.5016 8.50167 15.0232 8.50167 15.6666V20.3333C8.50167 20.7945 8.12782 21.1683 7.66667 21.1683H5.49833V13.6094C5.49833 12.8685 4.60251 12.4974 4.07859 13.0214C3.92262 13.1773 3.835 13.3889 3.835 13.6094V21.3333C3.835 21.7307 3.99286 22.1118 4.27385 22.3928C4.55484 22.6738 4.93595 22.8316 5.33333 22.8316H9C9.64341 22.8316 10.165 22.31 10.165 21.6666V17C10.165 16.5388 10.5388 16.165 11 16.165H13C13.4612 16.165 13.835 16.5388 13.835 17V21.6666C13.835 22.31 14.3566 22.8316 15 22.8316H18.6667C19.064 22.8316 19.4452 22.6738 19.7261 22.3928C20.0071 22.1118 20.165 21.7307 20.165 21.3333V13.4494C20.165 13.2289 20.0774 13.0173 19.9214 12.8614C19.3975 12.3374 18.5017 12.7085 18.5017 13.4494V21.1683Z" fill="white" stroke="white" stroke-width="0.33"/>
</svg>
