<svg width="17" height="17" viewBox="0 0 17 17" fill="none" xmlns="http://www.w3.org/2000/svg">
<path d="M14.5808 0H2.41923C1.04615 0 0 1.04615 0 2.41923V14.5808C0 15.9538 1.04615 17 2.41923 17H14.5808C15.9538 17 17 15.9538 17 14.5808V2.41923C17 1.04615 15.9538 0 14.5808 0ZM8.5 13.6C11.3115 13.6 13.6 11.3769 13.6 8.69615C13.6 8.23846 13.5346 7.71538 13.4038 7.32308H14.8423V14.2538C14.8423 14.5808 14.5808 14.9077 14.1885 14.9077H2.81154C2.48462 14.9077 2.15769 14.6462 2.15769 14.2538V7.25769H3.66154C3.53077 7.71538 3.46539 8.17308 3.46539 8.63077C3.4 11.3769 5.68846 13.6 8.5 13.6ZM8.5 11.6385C6.66923 11.6385 5.23077 10.2 5.23077 8.43462C5.23077 6.66923 6.66923 5.23077 8.5 5.23077C10.3308 5.23077 11.7692 6.66923 11.7692 8.43462C11.7692 10.2654 10.3308 11.6385 8.5 11.6385ZM14.7769 4.64231C14.7769 5.03461 14.45 5.36154 14.0577 5.36154H12.2269C11.8346 5.36154 11.5077 5.03461 11.5077 4.64231V2.87692C11.5077 2.48462 11.8346 2.15769 12.2269 2.15769H14.0577C14.45 2.15769 14.7769 2.48462 14.7769 2.87692V4.64231Z" fill="#4878A6"/>
</svg>
