<svg width="184" height="60" viewBox="0 0 184 60" fill="none" xmlns="http://www.w3.org/2000/svg">
<path fill-rule="evenodd" clip-rule="evenodd" d="M165.443 31.2233H171.59L177.345 42.7573H173.156L172.06 40.8155H164.934L163.838 42.7573H159.649L165.443 31.2233ZM135.416 33.9417V34.7961V39.9223V42.7573H139.018V39.9223V32.4272V31.2233H133.146L126.999 39.767C126.96 39.8835 126.921 39.9612 126.843 40.0777V39.1845V35.068V31.2233H123.241V35.068V41.9029V42.7573H129.113L135.26 34.2136C135.338 34.1359 135.377 34.0194 135.416 33.9417ZM168.81 33.8252H168.262L166.305 37.8252H170.728L168.81 33.8252ZM143.05 31.2233H146.652V35.2621H148.531L152.603 31.2233H157.535L151.702 36.7379L158.279 42.7961H153.072L148.531 38.2913H146.652V42.7961H143.05V31.2233ZM104.997 31.2233H108.599V35.2621H116.351V31.2233H119.952V42.7573H116.351V38.2524H108.599V42.7573H104.997V31.2233ZM86.8715 31.1845L92.1957 36.8544L86.8715 42.7573H91.6868L95.2102 38.8738L98.7336 42.7573H103.549L98.2247 36.8544L103.549 31.1845H98.577L95.2102 34.9126L91.8434 31.1845H86.8715ZM72.3864 42.7573V31.1845H84.9532V33.9806H75.9881V35.6116H84.5617V38.4078H75.9881V40H84.9532V42.7961H72.3864V42.7573ZM56.3745 34.1748V31.1845H70.2332V34.1748H65.1047V42.7573H61.503V34.1748H56.3745Z" fill="#2A5275"/>
<path fill-rule="evenodd" clip-rule="evenodd" d="M156.674 14.0583V9.5534H177.384V14.0194H169.711V26.835H164.347V14.0194H156.674V14.0583ZM78.2587 9.63107V26.9126H83.6221V14.7961L90.6689 26.9126H95.0536L101.631 14.7961V26.9126H106.328L108.403 19.4563L106.603 19.4175L108.677 9.63107H97.8723L93.2919 19.301H92.4698L87.8893 9.63107H78.2587ZM66.5923 22.9903C69.1762 22.9903 70.6638 22.9515 71.0553 22.8738C71.4468 22.7961 71.6817 22.4854 71.6817 21.9417C71.6817 21.2816 71.4076 20.8544 70.8204 20.699C70.2332 20.5437 68.8238 20.4272 66.5923 20.4272C62.1294 20.4272 59.3106 20.1165 58.1362 19.4563C56.9617 18.7961 56.3745 17.2039 56.3745 14.6796C56.3745 12.3107 57.1183 10.835 58.6451 10.1748C59.8196 9.6699 62.4034 9.43689 66.4357 9.43689C70.0374 9.43689 72.3081 9.51456 73.2476 9.70874C75.0485 10.0583 76.1447 11.3398 76.497 13.5922H66.5532H66.4357C64.0085 13.5922 62.6383 13.6311 62.2468 13.7087C61.8553 13.7864 61.6987 14.1359 61.6987 14.6796C61.6987 15.2621 62.0119 15.6505 62.6383 15.8447C63.2647 16.0388 64.5566 16.1165 66.5532 16.1165C70.977 16.1165 73.7957 16.466 75.0876 17.165C76.3796 17.8641 77.0059 19.4563 77.0059 21.9417C77.0059 24.233 76.3013 25.7087 74.8527 26.3689C73.6 26.9126 70.8596 27.1845 66.514 27.1845C63.1864 27.1845 61.0332 27.1068 60.0545 26.9515C58.5276 26.7184 57.4706 26.2136 56.9225 25.3592C56.5702 24.8155 56.3353 24.0388 56.1787 22.9903H66.3966H66.5923ZM115.568 9.63107H124.963L133.576 26.8738H127.312L125.668 23.9612H115.059L113.414 26.8738H107.151L107.19 26.7961L114.315 16.9709L111.066 16.7767L115.568 9.63107ZM120.735 13.5146H119.913L117.016 19.4951H123.632L120.735 13.5146ZM134.281 9.5534H149.862C151.78 9.5534 153.151 9.90291 153.934 10.6019C154.795 11.3398 155.226 12.699 155.226 14.6019C155.226 16.0777 155.03 17.2039 154.677 17.9029C154.325 18.6019 153.699 19.1456 152.798 19.4951C153.777 19.9223 154.403 20.3495 154.717 20.7379C155.03 21.165 155.186 21.9029 155.186 22.9903V26.8738H149.823V23.767C149.823 23.301 149.705 22.9515 149.471 22.6408C149.157 22.2524 148.688 22.0194 148.1 22.0194H139.644V26.835H134.281V9.5534ZM139.605 14.0583V17.5922H148.218C148.805 17.5922 149.236 17.4757 149.471 17.2039C149.705 16.9709 149.862 16.5049 149.862 15.8447C149.862 15.1845 149.745 14.7184 149.471 14.4466C149.197 14.1748 148.805 14.0583 148.218 14.0583H139.605Z" fill="#4878A6"/>
<path fill-rule="evenodd" clip-rule="evenodd" d="M10.1396 13.3592L16.9515 9.47573L26.1906 4.19417L35.4298 9.47573L44.6689 14.7573V20.8932L39.3055 17.8252L26.1906 10.2913L15.503 16.4272L10.1396 13.3592ZM7.71234 17.5146V23.8058L26.5038 34.5631L31.7498 31.2621L7.71234 17.5146Z" fill="#4878A6"/>
<path fill-rule="evenodd" clip-rule="evenodd" d="M42.2417 37.2816L35.4298 41.165L26.1906 46.4466L16.9515 41.165L7.71234 35.8835V29.7476L13.0757 32.8155L26.1906 40.3107L36.8783 34.1748L42.2417 37.2816ZM30.6928 18.7961L26.3081 16.2719L21.1404 19.2233L24.4289 21.1262L43.2204 31.8835L44.7081 32.7379V26.7961L43.2204 25.9418L30.6928 18.7961Z" fill="#2A5275"/>
<path fill-rule="evenodd" clip-rule="evenodd" d="M12.6843 51.0291L12.3319 51.9223C11.823 51.6505 11.2749 51.4951 10.6877 51.4951C10.1004 51.4951 9.63064 51.6505 9.31745 51.9223C8.96511 52.1942 8.80852 52.5825 8.80852 53.0485C8.80852 53.5534 9.00426 53.9417 9.3566 54.2524C9.74809 54.5631 10.2179 54.7184 10.8443 54.7184C11.5489 54.7184 12.1362 54.5243 12.6843 54.1748V55.2233C12.1362 55.4951 11.4706 55.6505 10.8051 55.6505C9.90469 55.6505 9.16086 55.4175 8.61277 54.9515C8.06469 54.4854 7.7515 53.8641 7.7515 53.0874C7.7515 52.3495 8.02554 51.767 8.57362 51.301C9.12171 50.835 9.82639 50.6019 10.7268 50.6019C11.3532 50.6019 12.0187 50.7573 12.6843 51.0291ZM14.0545 51.4951H17.6953V52.3495H15.0332V53.0485H17.4996L17.1472 53.9029H15.0332V54.6408H17.8911V55.4951H14.0153V51.4951H14.0545ZM18.7132 51.4951H22.9413V52.3883H21.3362V55.4951H20.3183V52.3883H18.7132V51.4951ZM23.9592 51.4951H24.977V54.6408H26.543C26.7387 54.6408 26.8953 54.6019 27.0128 54.5243C27.1302 54.4466 27.1694 54.3301 27.1694 54.1748C27.1694 54.0194 27.1302 53.9029 27.0128 53.8252C26.8953 53.7476 26.7387 53.7087 26.543 53.7087H25.2511L25.6034 52.8544H26.543C27.0519 52.8544 27.4434 52.9709 27.7175 53.2039C27.9915 53.4369 28.1481 53.7476 28.1481 54.1748C28.1481 54.6019 27.9915 54.9126 27.7175 55.1456C27.4434 55.3786 27.0519 55.4951 26.543 55.4951H23.9592V51.4951ZM32.063 51.4951H33.2375L34.7643 53.8252L36.2519 51.4951H37.4264V55.534H36.4085V52.9709L34.9992 55.1068H34.4119L33.0026 53.0097V55.5728H32.0238V51.4951H32.063ZM39.5013 55.534H38.4443L40.48 51.534H41.6545L43.6902 55.534H42.5941L42.2026 54.7961H39.8536L39.5013 55.534ZM41.0281 52.3495L40.206 53.9806H41.8502L41.0281 52.3495ZM44.7081 51.4951H47.9183V52.3495H45.726V55.4951H44.7081V51.4951ZM49.0145 55.534H47.9575L49.9932 51.534H51.1677L53.2034 55.534H52.1072L51.7158 54.7961H49.3668L49.0145 55.534ZM50.5413 52.3495L49.7192 53.9806H51.3634L50.5413 52.3495ZM54.0255 51.767C54.7302 51.4951 55.4349 51.3786 56.0613 51.3786C56.6877 51.3786 57.1575 51.4951 57.4706 51.6893C57.823 51.8835 57.9796 52.1942 57.9796 52.5437C57.9796 52.932 57.7838 53.2427 57.4315 53.3981V53.4369C57.8621 53.6311 58.097 53.9417 58.097 54.4078C58.097 54.7961 57.9013 55.1068 57.5489 55.3398C57.1966 55.5728 56.6485 55.6505 55.983 55.6505C55.3958 55.6505 54.8085 55.534 54.1821 55.3398V54.3301C54.417 54.4466 54.6911 54.5631 55.0434 54.6408C55.3566 54.7184 55.7089 54.7573 56.0221 54.7573C56.3353 54.7573 56.5702 54.7184 56.766 54.6408C56.9617 54.5631 57.04 54.4466 57.04 54.2913C57.04 54.0194 56.7268 53.9029 56.1004 53.9029H54.5736L54.926 53.0485H56.1004C56.6877 53.0485 57.0009 52.932 57.0009 52.6602C57.0009 52.3884 56.6877 52.233 56.0613 52.233C55.474 52.233 54.926 52.3495 54.3779 52.5825L54.0255 51.767ZM59.3889 51.4951H60.4068V54.1748L62.7949 51.4951H63.8128V55.534H62.7949V52.8544L60.4068 55.534H59.3889V51.4951ZM65.457 51.4951H66.4749V53.0097H68.863V51.4951H69.8809V55.534H68.863V53.9029H66.4749V55.534H65.457V51.4951ZM73.8349 51.4175C74.6179 51.4175 75.2834 51.6116 75.7532 52C76.223 52.3883 76.497 52.8932 76.497 53.5146C76.497 54.1359 76.2621 54.6796 75.7532 55.068C75.2834 55.4563 74.6179 55.6505 73.8349 55.6505C73.0519 55.6505 72.3864 55.4563 71.9166 55.068C71.4468 54.6796 71.2119 54.1748 71.2119 53.5146C71.2119 52.8932 71.4468 52.3883 71.9166 52C72.4255 51.6116 73.0519 51.4175 73.8349 51.4175ZM72.6604 52.5825C72.3472 52.8155 72.2298 53.1262 72.2298 53.5146C72.2298 53.9029 72.3864 54.2136 72.6604 54.4466C72.9736 54.6796 73.3651 54.7961 73.8349 54.7961C74.3047 54.7961 74.6962 54.6796 75.0094 54.4466C75.3226 54.2136 75.4792 53.9029 75.4792 53.5146C75.4792 53.1262 75.3226 52.8544 75.0094 52.6214C74.6962 52.3883 74.3047 52.2718 73.8349 52.2718C73.3651 52.233 72.9736 52.3495 72.6604 52.5825ZM77.8672 51.4951H80.6077C81.1166 51.4951 81.4689 51.5728 81.743 51.767C82.017 51.9223 82.1345 52.1942 82.1345 52.5049C82.1345 52.8544 81.9779 53.165 81.7038 53.3592V53.3981C82.0953 53.6311 82.2911 53.9417 82.2911 54.3689C82.2911 54.7573 82.1736 55.0291 81.8604 55.2233C81.5864 55.4175 81.1949 55.534 80.686 55.534H77.8672V51.4951ZM78.8851 52.3883V54.6796H80.7251C80.9209 54.6796 81.0383 54.6408 81.1558 54.5631C81.2732 54.4854 81.3123 54.4078 81.3123 54.2913C81.3123 54.1748 81.2732 54.0583 81.1558 54.0194C81.0383 53.9417 80.9209 53.9029 80.7251 53.9029H79.1592L79.5115 53.0485H80.7251C80.8817 53.0485 80.96 53.0097 81.0775 52.9709C81.1558 52.8932 81.1949 52.8155 81.1949 52.7379C81.1949 52.6214 81.1558 52.5437 81.0775 52.5049C80.9992 52.466 80.8817 52.4272 80.7251 52.4272H78.8851V52.3883ZM86.1668 51.4951H88.9072C89.4162 51.4951 89.7685 51.5728 90.0426 51.767C90.3166 51.9223 90.4341 52.1942 90.4341 52.5049C90.4341 52.8544 90.2775 53.165 90.0034 53.3592V53.3981C90.3949 53.6311 90.5906 53.9417 90.5906 54.3689C90.5906 54.7573 90.4732 55.0291 90.16 55.2233C89.886 55.4175 89.4945 55.534 88.9855 55.534H86.1668V51.4951ZM87.1847 52.3883V54.6796H89.0247C89.2204 54.6796 89.3379 54.6408 89.4553 54.5631C89.5728 54.4854 89.6119 54.4078 89.6119 54.2913C89.6119 54.1748 89.5728 54.0583 89.4553 54.0194C89.3379 53.9417 89.2204 53.9029 89.0247 53.9029H87.4587L87.8111 53.0485H89.0247C89.1813 53.0485 89.2596 53.0097 89.377 52.9709C89.4553 52.8932 89.4945 52.8155 89.4945 52.7379C89.4945 52.6214 89.4553 52.5437 89.377 52.5049C89.2987 52.466 89.1813 52.4272 89.0247 52.4272H87.1847V52.3883ZM99.2426 51.0291L98.8902 51.9223C98.3813 51.6505 97.8332 51.4951 97.246 51.4951C96.6587 51.4951 96.1889 51.6505 95.8758 51.9223C95.5234 52.1942 95.3668 52.5825 95.3668 53.0485C95.3668 53.5534 95.5626 53.9417 95.9149 54.2524C96.3064 54.5631 96.7762 54.7184 97.4026 54.7184C98.1072 54.7184 98.6945 54.5243 99.2426 54.1748V55.2233C98.6945 55.4951 98.0289 55.6505 97.3634 55.6505C96.463 55.6505 95.7192 55.4175 95.1711 54.9515C94.623 54.4854 94.3098 53.8641 94.3098 53.0874C94.3098 52.3495 94.5838 51.767 95.1319 51.301C95.68 50.835 96.3847 50.6019 97.2851 50.6019C97.9115 50.6019 98.577 50.7573 99.2426 51.0291ZM101.043 55.534H99.9864L102.022 51.534H103.197L105.232 55.534H104.136L103.745 54.7961H101.396L101.043 55.534ZM102.57 52.3495L101.748 53.9806H103.392L102.57 52.3495ZM106.25 51.4951H107.268V53.0097H109.656V51.4951H110.674V55.534H109.617V53.9029H107.268V55.534H106.25V51.4951ZM115.294 51.4951H116.468L114.746 53.3204L116.664 55.4951H115.372L113.532 53.3592L115.294 51.4951ZM112.279 51.4951H113.297V55.534H112.279V51.4951ZM117.094 51.4951H121.323V52.3883H119.717V55.4951H118.7V52.3883H117.094V51.4951ZM121.597 53.7087V52.932H124.18V53.7087H121.597ZM125.59 50.7184H130.483V55.534H129.426V51.6505H126.608V55.534H125.551V50.7184H125.59ZM132.284 51.4951H135.925V52.3495H133.263V53.0485H135.729L135.377 53.9029H133.263V54.6408H136.121V55.4951H132.245V51.4951H132.284ZM136.943 51.4951H141.171V52.3883H139.566V55.4951H138.548V52.3883H136.943V51.4951ZM142.189 51.4951H145.83V52.3495H143.168V53.0485H145.634L145.282 53.9029H143.168V54.6408H146.026V55.4951H142.15V51.4951H142.189ZM147.474 51.4951H150.058C150.567 51.4951 150.958 51.6117 151.232 51.8447C151.506 52.0777 151.663 52.4272 151.663 52.8155C151.663 53.2427 151.506 53.5534 151.232 53.7864C150.958 54.0194 150.567 54.1359 150.058 54.1359H148.766L149.157 53.2816H150.175C150.332 53.2816 150.449 53.2427 150.528 53.165C150.606 53.0874 150.645 52.9709 150.645 52.8155C150.645 52.6602 150.606 52.5437 150.489 52.466C150.41 52.3884 150.254 52.3495 150.097 52.3495H148.492V55.4951H147.474V51.4951ZM152.955 51.4951H156.831V52.3495H153.973V54.6408H155.813C156.204 54.6408 156.439 54.5243 156.439 54.2524C156.439 54.1359 156.4 54.0194 156.283 53.9417C156.165 53.8641 156.009 53.8252 155.813 53.8252H154.247L154.599 52.9709H155.774C156.283 52.9709 156.674 53.0874 156.948 53.3204C157.222 53.5534 157.379 53.8641 157.379 54.2524C157.379 54.6408 157.222 54.9515 156.948 55.1845C156.674 55.4175 156.283 55.534 155.774 55.534H152.955V51.4951ZM160.55 55.534H159.493L160.354 54.0194L159.845 54.0971L158.123 51.534H159.258L160.589 53.5534L161.724 51.534H162.82L160.55 55.534ZM163.799 51.4951H166.383C166.892 51.4951 167.283 51.6117 167.557 51.8447C167.832 52.0777 167.988 52.4272 167.988 52.8155C167.988 53.2427 167.832 53.5534 167.557 53.7864C167.283 54.0194 166.892 54.1359 166.383 54.1359H165.091L165.483 53.2816H166.5C166.657 53.2816 166.774 53.2427 166.853 53.165C166.931 53.0874 166.97 52.9709 166.97 52.8155C166.97 52.6602 166.931 52.5437 166.814 52.466C166.735 52.3884 166.579 52.3495 166.422 52.3495H164.817V55.4951H163.799V51.4951ZM169.28 51.4951H172.49V52.3495H170.298V55.4951H169.28V51.4951ZM173.508 51.4951H177.149V52.3495H174.487V53.0485H176.953L176.601 53.9029H174.487V54.6408H177.345V55.4951H173.469V51.4951H173.508Z" fill="#4878A6"/>
</svg>
